<svg width="71" height="31" viewBox="0 0 71 31" fill="none" xmlns="http://www.w3.org/2000/svg">
    <path d="M4.46578 8.12V10H7.62578V10.32H4.46578V30H1.66578V10.32H0.825781V10H1.66578V8.12C1.66578 5.21333 2.29245 3.14667 3.54578 1.92C4.79911 0.666666 6.82578 0.0266655 9.62578 -2.38419e-06V0.319998C7.78578 0.346665 6.46578 0.973331 5.66578 2.2C4.86578 3.4 4.46578 5.37333 4.46578 8.12ZM18.0798 11.72V10.88C16.8798 11.36 15.7865 12.3333 14.7998 13.8C13.8132 15.24 13.2932 16.6 13.2398 17.88V30H10.4398V10H13.2398V16.36C13.6665 14.8133 14.4798 13.36 15.6798 12C16.8798 10.6133 18.2398 9.89333 19.7598 9.84H19.9198C20.4532 9.84 20.8932 10.0267 21.2398 10.4C21.6132 10.7467 21.7998 11.1867 21.7998 11.72C21.7998 12.2533 21.6132 12.6933 21.2398 13.04C20.8932 13.3867 20.4532 13.56 19.9198 13.56C19.3865 13.56 18.9465 13.3867 18.5998 13.04C18.2532 12.6933 18.0798 12.2533 18.0798 11.72ZM28.8948 30C27.8015 30 26.9615 29.76 26.3748 29.28C25.8148 28.8 25.5215 28.32 25.4948 27.84L25.4548 27.16V10H28.2548V27.16C28.2548 27.9333 28.4015 28.5333 28.6948 28.96C29.0148 29.36 29.3215 29.5733 29.6148 29.6L30.0948 29.68H31.3348V30H28.8948ZM25.6948 5.52C25.3748 5.2 25.2148 4.8 25.2148 4.32C25.2148 3.84 25.3748 3.44 25.6948 3.12C26.0148 2.77333 26.4148 2.6 26.8948 2.6C27.3748 2.6 27.7748 2.77333 28.0948 3.12C28.4415 3.44 28.6148 3.84 28.6148 4.32C28.6148 4.8 28.4415 5.2 28.0948 5.52C27.7748 5.84 27.3748 6 26.8948 6C26.4148 6 26.0148 5.84 25.6948 5.52ZM39.6214 30C37.2747 30 35.7947 29.3867 35.1814 28.16C35.0481 27.8933 34.9814 27.6533 34.9814 27.44V0.0399995H37.7814V27.16C37.7814 27.9333 37.9281 28.5333 38.2214 28.96C38.5414 29.36 38.8614 29.5733 39.1814 29.6L39.6214 29.68H40.8614V30H39.6214ZM48.9573 30C46.6107 30 45.1307 29.3867 44.5173 28.16C44.384 27.8933 44.3173 27.6533 44.3173 27.44V0.0399995H47.1173V27.16C47.1173 27.9333 47.264 28.5333 47.5573 28.96C47.8773 29.36 48.1973 29.5733 48.5173 29.6L48.9573 29.68H50.1973V30H48.9573ZM68.952 30C67.1387 30 65.8987 29.6533 65.232 28.96C64.6187 28.3733 64.312 27.8667 64.312 27.44V26.6C63.0054 28.9733 60.912 30.16 58.032 30.16C54.672 30.16 52.7654 28.64 52.312 25.6C52.2587 25.28 52.232 24.96 52.232 24.64C52.232 24.2933 52.2854 23.92 52.392 23.52C52.4987 23.12 52.8054 22.68 53.312 22.2C54.3254 21.24 56.552 20.6533 59.992 20.44C60.8454 20.36 61.632 20.32 62.352 20.32C63.072 20.32 63.7254 20.3467 64.312 20.4V13.76C64.2587 13.7333 64.2587 13.6133 64.312 13.4C64.3654 13.16 64.312 12.8667 64.152 12.52C64.0187 12.1467 63.832 11.7867 63.592 11.44C63.352 11.0933 62.9254 10.8 62.312 10.56C61.6987 10.2933 60.8987 10.16 59.912 10.16C58.9254 10.16 57.7654 10.3467 56.432 10.72C55.1254 11.0667 54.1654 11.4133 53.552 11.76L53.392 11.48C55.7654 10.3867 58.1787 9.84 60.632 9.84C63.3787 9.84 65.192 10.3333 66.072 11.32C66.7654 12.0933 67.112 12.9067 67.112 13.76V27.16C67.112 27.9333 67.2587 28.5333 67.552 28.96C67.872 29.36 68.192 29.5733 68.512 29.6L68.952 29.68H70.192V30H68.952ZM58.672 29.84C60.0854 29.84 61.352 29.36 62.472 28.4C63.6187 27.4133 64.232 26.4667 64.312 25.56V20.72C63.592 20.6667 62.8587 20.64 62.112 20.64C61.392 20.64 60.672 20.68 59.952 20.76C57.9254 21 56.6054 21.4533 55.992 22.12C55.3787 22.7867 55.072 23.7067 55.072 24.88C55.072 25.0933 55.0854 25.3333 55.112 25.6C55.352 28.4267 56.5387 29.84 58.672 29.84Z" fill="black"/>
    </svg>
    